<svg width="32" height="32" viewBox="0 0 100 100" xmlns="http://www.w3.org/2000/svg">
  <defs>
    <linearGradient id="primaryGradient" x1="0%" y1="0%" x2="100%" y2="100%">
      <stop offset="0%" style="stop-color:#3b82f6" />
      <stop offset="50%" style="stop-color:#06b6d4" />
      <stop offset="100%" style="stop-color:#10b981" />
    </linearGradient>
    
    <linearGradient id="wealthGradient" x1="0%" y1="0%" x2="100%" y2="100%">
      <stop offset="0%" style="stop-color:#10b981" />
      <stop offset="100%" style="stop-color:#f59e0b" />
    </linearGradient>
  </defs>
  
  <!-- Background Circle -->
  <circle cx="50" cy="50" r="45" fill="url(#primaryGradient)" opacity="0.9" />
  
  <!-- Inner Circle for depth -->
  <circle cx="50" cy="50" r="38" fill="none" stroke="white" stroke-width="1" opacity="0.3" />
  
  <!-- Dollar Sign - Main Symbol -->
  <g transform="translate(50,50)">
    <!-- Dollar Sign Vertical Line -->
    <line x1="0" y1="-25" x2="0" y2="25" stroke="white" stroke-width="4" stroke-linecap="round" />
    
    <!-- Dollar Sign S Curve -->
    <path d="M-12,-15 C-12,-20 -8,-22 -4,-22 L8,-22 C12,-22 16,-18 16,-14 C16,-10 12,-8 8,-8 L-8,-8 C-12,-8 -16,-4 -16,0 C-16,4 -12,8 -8,8 L4,8 C8,8 12,10 12,15" 
          fill="none" stroke="white" stroke-width="3" stroke-linecap="round" stroke-linejoin="round" />
  </g>
  
  <!-- Decorative Elements - Growth Arrows -->
  <g opacity="0.7">
    <path d="M25,25 L32,18 L25,18 Z" fill="url(#wealthGradient)" />
    <path d="M75,75 L68,82 L75,82 Z" fill="url(#wealthGradient)" transform="rotate(180 71.5 79)" />
  </g>
  
  <!-- Sparkle Effects -->
  <g opacity="0.8">
    <circle cx="20" cy="30" r="2" fill="white" />
    <circle cx="80" cy="70" r="1.5" fill="white" />
    <circle cx="30" cy="80" r="1" fill="white" />
  </g>
</svg>